<svg xmlns="http://www.w3.org/2000/svg" width="1080" height="1080" viewBox="0 0 1080 1080">
  <defs>
    <style>
      .cls-1 {
        fill: #fff;
        fill-rule: evenodd;
      }
    </style>
  </defs>
  <path id="fxll_1" data-name="fxll 1" class="cls-1" d="M675.955,44.055c209.232-3.209,275.477,152.505,165.8,298.024-42.7,56.657-116.033,99.111-186.963,126.968L478.408,514.9c-21.872,14.514-33.473,47.9-47.622,70.538-10.688,17.1-29.241,33.682-33.513,56.431-17.492,93.146,225.367,37.716,268.1,33.506l-1.764,3.526a1615.54,1615.54,0,0,1-172.853,42.323l-125.23,3.527c-20.981,7.2-67.524,94.256-82.9,116.388-13.279,19.115-65.259,77.138-52.914,109.335,13.954,32.932,64.373,28.363,105.828,35.269,75.8,12.627,184.948-12.326,246.933-37.033C758,878.744,869.488,787.072,963.455,636.576c45.835-73.4,86.445-157.54,68.785-262.755l1.77-1.764q2.64,1.764,5.29,3.527c11.47,42.748,39.09,90.952,28.22,153.421-51.67,297-322.1,445.711-622.624,499.055-63.327,11.24-157.106,11.28-213.42-5.29-23.908-7.03-49.413-30.192-70.553-33.5Q95.67,1006.012,30.4,1022.77c8.348-26.1,45.631-39.592,61.733-59.955l121.7-190.453c10.312-16.78,29.048-31.519,33.512-52.9C141.754,708.755,49.367,623.542,11,543.113v-1.764c19.631,6.159,29.294,28.9,44.1,40.56,41.592,32.774,93.627,62.585,155.215,74.065,64.139,11.955,92.962-61.412,116.411-93.463,7.425-10.15,29.874-40.106,21.166-47.614l-58.206-12.344c-57.361-15.849-109.12-44.924-141.1-86.409C76.155,322.207,172.37,178.1,249.114,148.1v1.763c-31.761,34.591-70.144,70.661-81.135,125.205-18.46,91.6,81.047,151.154,139.34,171.056,18.675,6.375,62.371,23.616,84.663,15.871,34.145-16.631,77.02-102.3,100.537-135.786C533.4,268,581.413,175.091,635.387,132.228c21.539-17.106,56.328-23.293,79.371-38.8-1.229-11.117-3.948-11.141-8.819-17.635-33.4-10.206-89.1-15.324-128.758-7.054l-68.788,19.4,1.764-5.29L591.292,56.4Zm65.26,58.194C680.165,193.693,618.677,285,559.544,379.111c-18.684,29.736-58.432,67.448-65.261,104.044C630.823,466.58,742.412,404.9,799.421,308.573c38.588-65.2,36.552-129.584-14.11-179.872C773.658,117.134,762.5,104.091,741.215,102.249Z"/>
</svg>
